#!OML:ASF F:\VICON\USERDATA\INSTALL\rory3\rory3.ASF
:FULLY-SPECIFIED
:DEGREES
508
root 3.64179 21.1135 7.26934 13.7526 -4.24515 -7.17705
lowerback 3.10416 -0.495414 5.3399
upperback -5.13534 -0.148809 2.71946
thorax -7.13377 -0.281183 -0.125225
lowerneck -10.3179 -4.36087 -5.46471
upperneck 22.0982 -5.71536 2.91226
head 8.84662 -2.85689 1.28446
rclavicle -2.18011e-014 -5.66536e-015
rhumerus -39.8202 8.20183 -83.3954
rradius 44.2297
rwrist 9.78979
rhand -25.8582 -45.0913
rfingers 7.12502
rthumb 0.682706 -75.0699
lclavicle -2.18011e-014 -5.66536e-015
lhumerus -46.2613 -15.0127 83.3503
lradius 44.0578
lwrist -5.83618
lhand -30.4692 -40.0152
lfingers 7.12502
lthumb -3.77059 -10.0689
rfemur -66.2521 -11.1197 17.4779
rtibia 115.81
rfoot 0.00556665 -4.63584
rtoes -11.361
lfemur -20.9399 -3.36985 -10.7806
ltibia 20.0803
lfoot 20.1598 4.16171
ltoes -15.6589
509
root 3.70308 21.0817 7.25804 14.0783 -4.89254 -7.60341
lowerback 2.7576 -0.277131 5.6063
upperback -5.07413 0.133914 2.79602
thorax -6.85708 -0.147867 -0.222892
lowerneck -10.4497 -4.37631 -5.43464
upperneck 21.9574 -5.72654 2.89399
head 8.82173 -2.85962 1.26974
rclavicle -1.41634e-014 3.18055e-015
rhumerus -39.199 7.77395 -83.3213
rradius 43.7218
rwrist 9.78182
rhand -25.6865 -45.8147
rfingers 7.12502
rthumb 0.848557 -75.7927
lclavicle -1.41634e-014 3.18055e-015
lhumerus -46 -14.5755 83.51
lradius 43.1726
lwrist -5.5739
lhand -30.148 -39.3817
lfingers 7.12502
lthumb -3.46035 -9.43006
rfemur -68.3538 -10.9673 18.4756
rtibia 117.943
rfoot 0.161232 -4.27556
rtoes -11.3935
lfemur -20.4527 -3.46952 -10.2071
ltibia 18.8016
lfoot 20.5324 4.78325
ltoes -15.1078
510
root 3.76427 21.0241 7.24202 14.4883 -5.50428 -7.73667
lowerback 2.38488 -0.10966 5.58607
upperback -5.05466 0.325067 2.797
thorax -6.61091 -0.0475473 -0.229033
lowerneck -10.8117 -4.35677 -5.24769
upperneck 22.0192 -5.67368 2.6996
head 8.89578 -2.83494 1.17107
rclavicle -1.28899e-015 1.93318e-014
rhumerus -38.5076 7.19947 -83.1996
rradius 43.3435
rwrist 10.1764
rhand -25.6205 -46.106
rfingers 7.12502
rthumb 0.912281 -76.0838
lclavicle -1.28899e-015 1.93318e-014
lhumerus -45.6986 -14.2316 83.6602
lradius 42.2905
lwrist -5.00452
lhand -29.7426 -38.6392
lfingers 7.12502
lthumb -3.06887 -8.68158
rfemur -70.6184 -11.0765 19.1329
rtibia 120.176
rfoot 0.370598 -3.50283
rtoes -11.2561
lfemur -20.053 -3.60532 -9.97798
ltibia 17.4902
lfoot 20.9043 5.31428
ltoes -14.8782
511
root 3.82998 20.9481 7.21509 14.9887 -6.06747 -7.68542
lowerback 2.19616 0.0748018 5.47451
upperback -5.27094 0.557618 2.71575
thorax -6.72117 0.0653614 -0.268253
lowerneck -10.7986 -4.38981 -5.21684
upperneck 22.0124 -5.72185 2.67719
head 8.89146 -2.85765 1.15314
rclavicle -2.02698e-014 8.49804e-015
rhumerus -38.2819 6.57768 -83.1414
rradius 42.9443
rwrist 9.91492
rhand -26.204 -46.0076
rfingers 7.12502
rthumb 0.348684 -75.9871
lclavicle -2.02698e-014 8.49804e-015
lhumerus -45.7571 -14.0476 83.8924
lradius 41.5979
lwrist -4.35418
lhand -29.5307 -38.4429
lfingers 7.12502
lthumb -2.86426 -8.48235
rfemur -73.0487 -11.3192 19.5466
rtibia 122.367
rfoot 0.260485 -2.56283
rtoes -11.2923
lfemur -19.8028 -3.56574 -10.0311
ltibia 16.2599
lfoot 21.3496 5.31834
ltoes -14.7071
512
root 3.9003 20.8658 7.1902 15.4642 -6.58048 -7.68534
lowerback 1.87899 0.243973 5.46195
upperback -5.4374 0.762567 2.63988
thorax -6.70508 0.162901 -0.354267
lowerneck -10.6894 -4.40624 -5.24155
upperneck 21.9057 -5.77023 2.79534
head 8.84096 -2.87177 1.19451
rclavicle 1.81407e-014 1.4064e-014
rhumerus -38.1051 6.01349 -83.0431
rradius 42.7723
rwrist 9.74266
rhand -25.9277 -46.7474
rfingers 7.12502
rthumb 0.615568 -76.7263
lclavicle 1.81407e-014 1.4064e-014
lhumerus -45.8044 -13.8281 84.0605
lradius 41.0997
lwrist -3.70667
lhand -29.412 -38.119
lfingers 7.12502
lthumb -2.74965 -8.15693
rfemur -75.3392 -11.447 19.9682
rtibia 124.319
rfoot 0.0885778 -1.64255
rtoes -11.9196
lfemur -19.6307 -3.39239 -10.0833
ltibia 15.2949
lfoot 21.6691 5.7531
ltoes -13.1054
513
root 3.94687 20.7629 7.17829 16.0684 -7.43537 -7.37006
lowerback 1.13876 0.475501 4.73505
upperback -5.51488 0.978563 2.52238
thorax -6.35122 0.310102 -0.0836233
lowerneck -10.851 -4.39493 -5.30366
upperneck 21.9134 -5.77556 2.97494
head 8.88112 -2.8591 1.2614
rclavicle 1.07398e-014 1.61761e-014
rhumerus -37.7307 5.43543 -82.8987
rradius 42.8492
rwrist 10.307
rhand -24.9406 -47.6779
rfingers 7.12502
rthumb 1.56897 -77.6518
lclavicle 1.07398e-014 1.61761e-014
lhumerus -45.7589 -13.5281 84.1188
lradius 40.6986
lwrist -3.09679
lhand -29.4385 -38.1137
lfingers 7.12502
lthumb -2.77522 -8.152
rfemur -78.1486 -11.3814 20.244
rtibia 126.351
rfoot 0.16417 -0.749577
rtoes -11.9497
lfemur -19.7286 -3.05713 -10.4561
ltibia 14.6217
lfoot 22.0262 6.82622
ltoes -11.3759
514
root 4.01334 20.658 7.16481 16.3304 -7.51125 -7.93532
lowerback 1.05682 0.500162 5.4677
upperback -5.55802 1.04335 2.59494
thorax -6.34411 0.305716 -0.418368
lowerneck -11.0604 -4.35654 -5.32159
upperneck 21.9715 -5.73364 3.07876
head 8.9416 -2.82776 1.29972
rclavicle 1.32895e-014 -6.92081e-014
rhumerus -37.589 5.47366 -83.2425
rradius 42.6015
rwrist 7.62098
rhand -28.6189 -43.5446
rfingers 7.12502
rthumb -1.98365 -73.5152
lclavicle 1.32895e-014 -6.92081e-014
lhumerus -45.7973 -13.2807 84.1443
lradius 40.4244
lwrist -2.48442
lhand -29.5772 -38.7906
lfingers 7.12502
lthumb -2.90917 -8.83069
rfemur -79.703 -11.2928 21.43
rtibia 127.883
rfoot 0.0275921 -0.387365
rtoes -10.8506
lfemur -19.5614 -2.74537 -9.92215
ltibia 14.3053
lfoot 22.2509 6.97249
ltoes -12.3173
515
root 4.07701 20.531 7.14443 16.6539 -7.90951 -8.21988
lowerback 0.953116 0.610172 5.70497
upperback -5.67448 1.19948 2.61402
thorax -6.39989 0.368098 -0.538416
lowerneck -11.115 -4.32533 -5.2197
upperneck 21.9359 -5.68856 2.99823
head 8.93155 -2.80613 1.25974
rclavicle -1.1969e-014 -4.5969e-016
rhumerus -37.4235 4.97836 -83.1317
rradius 42.6967
rwrist 7.69876
rhand -27.6078 -44.8764
rfingers 7.12502
rthumb -1.00712 -74.8538
lclavicle -1.1969e-014 -4.5969e-016
lhumerus -45.9671 -13.0815 84.1843
lradius 40.4319
lwrist -2.12764
lhand -29.5135 -38.9413
lfingers 7.12502
lthumb -2.84764 -8.98057
rfemur -81.6463 -11.0681 22.2704
rtibia 129.452
rfoot -0.00758016 -0.0192491
rtoes -9.6619
lfemur -19.6371 -2.32121 -9.74509
ltibia 14.3537
lfoot 22.5105 7.25698
ltoes -14.2611
516
root 4.13301 20.3867 7.12357 17.1203 -8.60155 -8.39308
lowerback 0.606377 0.835273 5.62181
upperback -5.75111 1.47204 2.60083
thorax -6.26834 0.508852 -0.517817
lowerneck -11.207 -4.38796 -5.14383
upperneck 21.8439 -5.76969 2.93695
head 8.91642 -2.84317 1.21538
rclavicle 1.56698e-014 -8.82107e-015
rhumerus -37.0624 4.15875 -82.7986
rradius 43.2586
rwrist 9.57285
rhand -23.3098 -50.0166
rfingers 7.12502
rthumb 3.14395 -79.9731
lclavicle 1.56698e-014 -8.82107e-015
lhumerus -46.0642 -12.9412 84.2175
lradius 40.5837
lwrist -2.04336
lhand -29.0841 -38.515
lfingers 7.12502
lthumb -2.43289 -8.54917
rfemur -83.9314 -10.443 22.9719
rtibia 130.982
rfoot -0.0922506 0.129787
rtoes -8.95293
lfemur -19.9908 -1.49682 -9.80712
ltibia 14.73
lfoot 22.8638 7.79124
ltoes -13.5287
517
root 4.18733 20.2329 7.11102 17.4864 -9.12182 -8.51183
lowerback 0.190357 0.979671 5.5453
upperback -5.80975 1.63071 2.59147
thorax -6.08412 0.594452 -0.487066
lowerneck -11.0564 -4.39445 -5.12019
upperneck 21.6577 -5.78299 2.92605
head 8.82402 -2.85081 1.21024
rclavicle 4.32357e-015 -1.10822e-014
rhumerus -36.9176 3.88426 -82.825
rradius 43.2754
rwrist 9.54627
rhand -24.4729 -49.998
rfingers 7.12502
rthumb 2.0206 -79.9682
lclavicle 4.32357e-015 -1.10822e-014
lhumerus -46.3264 -12.7646 84.2423
lradius 40.8887
lwrist -2.05568
lhand -28.7469 -38.2693
lfingers 7.12502
lthumb -2.10727 -8.29992
rfemur -85.8008 -9.90626 23.5783
rtibia 132.311
rfoot -0.464443 0.0668043
rtoes -8.54087
lfemur -20.2819 -0.398544 -10.054
ltibia 15.293
lfoot 23.1177 7.94879
ltoes -9.90925
518
root 4.2456 20.0678 7.09952 17.5117 -9.3789 -8.26896
lowerback 0.140948 0.969187 5.24438
upperback -5.92736 1.6041 2.51168
thorax -6.1848 0.590652 -0.400964
lowerneck -10.9712 -4.353 -5.03761
upperneck 21.674 -5.72133 2.81058
head 8.80486 -2.82856 1.16637
rclavicle -2.67272e-014 -1.69961e-014
rhumerus -36.9417 3.72358 -82.7927
rradius 43.9553
rwrist 8.64456
rhand -23.0573 -51.6968
rfingers 7.12502
rthumb 3.38774 -81.6496
lclavicle -2.67272e-014 -1.69961e-014
lhumerus -46.9166 -12.6308 84.3151
lradius 41.3393
lwrist -2.20051
lhand -28.8887 -37.9705
lfingers 7.12502
lthumb -2.24423 -8.00252
rfemur -87.2379 -10.1679 23.7964
rtibia 133.544
rfoot -1.0069 0.206442
rtoes -8.80885
lfemur -20.413 0.658698 -10.7857
ltibia 16.0842
lfoot 23.3749 7.47978
ltoes -12.1788
519
root 4.30685 19.8867 7.08184 17.4551 -9.73071 -7.92837
lowerback 0.18136 0.97831 4.89349
upperback -5.92985 1.59924 2.36023
thorax -6.21181 0.601587 -0.364387
lowerneck -11.2436 -4.33013 -4.85133
upperneck 21.684 -5.69511 2.7254
head 8.84878 -2.80676 1.10397
rclavicle -9.87401e-015 -1.19768e-014
rhumerus -36.6989 3.54918 -82.8111
rradius 44.1577
rwrist 8.71847
rhand -22.8202 -52.1455
rfingers 7.12502
rthumb 3.61669 -82.0946
lclavicle -9.87401e-015 -1.19768e-014
lhumerus -47.1508 -12.656 84.3042
lradius 41.5913
lwrist -2.4124
lhand -29.1622 -37.9462
lfingers 7.12502
lthumb -2.50836 -7.98123
rfemur -88.7952 -10.404 23.8608
rtibia 134.679
rfoot -1.43125 0.391543
rtoes -8.9578
lfemur -20.5475 1.85216 -11.7497
ltibia 17.0671
lfoot 24.0052 6.41355
ltoes -14.3505
520
root 4.36457 19.6916 7.06398 17.4479 -10.2018 -7.78166
lowerback -0.0355516 1.08923 4.70618
upperback -5.74698 1.70987 2.20842
thorax -5.88569 0.670575 -0.419631
lowerneck -11.4789 -4.34072 -4.77438
upperneck 21.4053 -5.73853 2.87327
head 8.80039 -2.80287 1.13256
rclavicle -1.04983e-014 5.36719e-015
rhumerus -36.2815 3.2144 -82.848
rradius 44.5238
rwrist 8.63544
rhand -23.2786 -52.0742
rfingers 7.12502
rthumb 3.17408 -82.0304
lclavicle -1.04983e-014 5.36719e-015
lhumerus -46.9352 -12.8662 84.196
lradius 41.7945
lwrist -2.53579
lhand -29.2575 -38.3982
lfingers 7.12502
lthumb -2.60035 -8.43434
rfemur -90.2692 -10.0836 24.0961
rtibia 135.61
rfoot -1.7002 0.326866
rtoes -8.53281
lfemur -20.7128 3.10898 -12.5152
ltibia 18.1539
lfoot 24.4881 5.66791
ltoes -14.8154
521
root 4.41496 19.4821 7.04205 17.323 -10.6334 -7.76644
lowerback 0.141309 1.20137 4.55902
upperback -5.71223 1.86186 2.1248
thorax -5.94438 0.750414 -0.435784
lowerneck -11.7479 -4.44702 -4.81068
upperneck 21.4418 -5.88757 2.95879
head 8.87292 -2.86342 1.14411
rclavicle -2.48543e-014 -4.07509e-015
rhumerus -36.388 2.97212 -82.8473
rradius 45.374
rwrist 8.34037
rhand -23.2888 -52.4787
rfingers 7.12502
rthumb 3.1642 -82.435
lclavicle -2.48543e-014 -4.07509e-015
lhumerus -47.0862 -13.041 84.11
lradius 42.2422
lwrist -2.75376
lhand -29.5464 -39.2409
lfingers 7.12502
lthumb -2.87944 -9.28063
rfemur -91.4551 -9.56944 24.5486
rtibia 136.397
rfoot -1.83179 0.025836
rtoes -8.13988
lfemur -20.7658 4.24901 -13.048
ltibia 19.2937
lfoot 23.5872 5.73305
ltoes -16.1579
